<?xml version="1.0" encoding="UTF-8"?>
<svg width="2200px" height="406px" viewBox="0 0 2200 406" version="1.1" xmlns="http://www.w3.org/2000/svg" xmlns:xlink="http://www.w3.org/1999/xlink">
    <!-- Generator: Sketch 50.2 (55047) - http://www.bohemiancoding.com/sketch -->
    <title>Group</title>
    <desc>Created with Sketch.</desc>
    <defs>
        <linearGradient x1="50%" y1="0%" x2="50%" y2="100%" id="linearGradient-1">
            <stop stop-color="#FFFFFF" offset="0%"></stop>
            <stop stop-color="#B0E0F8" offset="100%"></stop>
        </linearGradient>
        <linearGradient x1="50%" y1="0%" x2="50%" y2="100%" id="linearGradient-2">
            <stop stop-color="#FFFFFF" stop-opacity="0.720000029" offset="0%"></stop>
            <stop stop-color="#CBECFE" offset="100%"></stop>
        </linearGradient>
    </defs>
    <g id="Page-1" stroke="none" stroke-width="1" fill="none" fill-rule="evenodd">
        <g id="Desktop-HD" transform="translate(-1369.000000, -981.000000)">
            <g id="Group" transform="translate(1369.000000, 981.000000)">
                <path d="M0,406 L0,4.00223882 C70.9194804,4.32511816 132.237438,38.9703068 161.935235,89.3066871 C179.227544,81.4355607 198.786979,77 219.500018,77 C276.238746,77 324.321261,110.282819 340.859561,156.294132 C342.874843,156.099819 344.923746,156 347.000018,156 C353.561143,156 359.848968,156.996788 365.666186,158.82229 C380.290902,132.334851 411.883706,114 448.500018,114 C499.034072,114 540.000018,148.92179 540.000018,192 C540.000018,196.988807 539.450602,201.868223 538.400537,206.596679 C549.292868,197.521756 563.700697,192 579.500018,192 C605.521566,192 627.768521,206.978443 636.751487,228.140278 C638.153323,228.047339 639.57018,228 641.000018,228 C652.01666,228 662.262783,230.810248 670.80438,235.635108 C687.287203,221.583432 709.30916,213 733.500018,213 C753.959834,213 772.868189,219.139908 788.186113,229.535054 C799.301472,219.314066 814.605167,213 831.500018,213 C833.487338,213 835.452641,213.087365 837.391702,213.258176 C853.236625,177.605366 896.773744,152 948.000018,152 C949.742083,152 951.475257,152.029612 953.198751,152.088226 C951.107397,144.680614 950.000018,136.949732 950.000018,129 C950.000018,74.3238098 1002.3827,30 1067.00002,30 C1119.41104,30 1163.77313,59.1598003 1178.66302,99.352022 C1188.93083,92.22287 1201.68334,88 1215.50002,88 C1232.2106,88 1247.36455,94.177085 1258.44873,104.202018 C1270.89927,70.4753571 1308.07483,46 1352.00002,46 C1396.45752,46 1434.00081,71.0721657 1445.99303,105.432226 C1451.89085,101.406513 1459.36676,99 1467.50002,99 C1486.25791,99 1501.51935,111.800527 1501.98888,127.74315 C1530.58512,109.689169 1566.06614,99 1604.50002,99 C1653.80376,99 1698.24819,116.590381 1729.53287,144.753285 C1750.73275,119.486574 1785.591,103 1825.00002,103 C1840.69252,103 1855.66345,105.614108 1869.33778,110.355757 C1871.69395,96.0255287 1886.09117,85 1903.50002,85 C1904.05493,85 1904.60678,85.0112023 1905.15528,85.0333567 C1913.17579,36.9707466 1961.98542,0 2021.00002,0 C2051.88859,0 2079.98147,10.1282611 2100.89325,26.6740434 C2128.56976,12.2927714 2161.14037,4 2196.00002,4 C2197.33677,4 2198.67015,4.01219424 2200.00003,4.03645844 L2200.00002,311.963542 L2200.00002,406 L0,406 Z" id="Combined-Shape" fill="url(#linearGradient-1)"></path>
                <path d="M0,406 L0,282.888562 C23.3700483,282.933638 45.3674983,286.134769 64.6162166,291.74634 C72.6271876,257.088515 110.558154,230.840764 156.141947,230.840764 C181.00395,230.840764 203.589424,238.648829 220.285585,251.370846 C239.562027,233.294532 268.244324,221.832575 300.272975,221.832575 C339.654703,221.832575 373.977204,239.161476 391.976152,264.807817 C425.230943,248.810731 472.075898,238.848044 523.976342,238.848044 C598.717301,238.848044 662.973986,259.50906 691.257574,289.099251 C696.987676,285.211677 704.248583,282.88808 712.147407,282.88808 C726.854805,282.88808 739.350581,290.943862 743.870823,302.1518 C756.157912,298.121783 769.610847,295.899909 783.712466,295.899909 C822.205359,295.899909 855.864819,312.45542 874.172134,337.151473 C892.720589,305.433524 940.00372,282.88808 995.404914,282.88808 C1028.38114,282.88808 1058.48118,290.875792 1081.35731,304.031065 C1094.13121,285.967088 1117.42363,273.879891 1144.04004,273.879891 C1150.27182,273.879891 1156.32139,274.542491 1162.0964,275.789265 C1180.99658,253.496296 1212.92778,238.848044 1249.13558,238.848044 C1287.21824,238.848044 1320.56995,255.052563 1339.00471,279.312816 C1350.5817,275.801814 1363.13586,273.879891 1376.25114,273.879891 C1396.07259,273.879891 1414.6124,278.269769 1430.43434,285.900532 C1442.19017,249.126107 1485.61996,221.832575 1537.39763,221.832575 C1598.20424,221.832575 1647.49773,259.474876 1647.49773,305.909008 C1647.49773,308.514775 1647.34249,311.092855 1647.0387,313.63815 C1658.09026,308.702242 1670.67641,305.909008 1684.03094,305.909008 C1722.68551,305.909008 1754.90256,329.310956 1762.10115,360.338578 C1768.79707,358.785483 1775.845,357.956324 1783.12102,357.956324 C1798.38429,357.956324 1812.64385,361.605088 1824.75573,367.931335 C1840.21223,350.972686 1865.34444,339.939945 1893.72157,339.939945 C1917.7031,339.939945 1939.36714,347.819483 1954.83225,360.49624 C1969.89774,341.529533 1996.51729,328.929936 2026.84258,328.929936 C2042.08494,328.929936 2056.39109,332.113041 2068.76445,337.687837 C2084.62655,306.348914 2137.28272,283.255637 2200,282.892426 L2200,406 L0,406 Z" id="Combined-Shape" fill="url(#linearGradient-2)"></path>
            </g>
        </g>
    </g>
</svg>