<?xml version="1.0" encoding="UTF-8"?>
<svg width="66px" height="93px" viewBox="0 0 66 93" version="1.1" xmlns="http://www.w3.org/2000/svg" xmlns:xlink="http://www.w3.org/1999/xlink">
    <!-- Generator: Sketch 50.2 (55047) - http://www.bohemiancoding.com/sketch -->
    <title>Group</title>
    <desc>Created with Sketch.</desc>
    <defs></defs>
    <g id="Page-1" stroke="none" stroke-width="1" fill="none" fill-rule="evenodd">
        <g id="Desktop-HD" transform="translate(-700.000000, -759.000000)">
            <g id="Group" transform="translate(700.000000, 759.000000)">
                <path d="M37.6148108,92.3823763 L49.6898132,75.8610074 C50.3049128,75.0375091 49.9765895,74.3682241 48.9581792,74.3682241 L43.9421283,74.3682241 C43.6381252,74.3682241 43.3928961,74.1194268 43.3928961,73.8110005 L43.3928961,62.8742038 C43.3928961,61.8399476 42.567021,61 41.5475973,61 L31.4526683,61 C30.4312179,61 29.6063562,61.8399476 29.6063562,62.8742038 L29.6063562,73.8110005 C29.6063562,74.1194268 29.3601138,74.3682241 29.0591507,74.3682241 L24.0441132,74.3682241 C23.0246895,74.3682241 22.6953528,75.0375091 23.3084257,75.8610074 L35.3854549,92.3823763 C36.0015678,93.2058746 36.9986979,93.2058746 37.6148108,92.3823763 Z" id="Shape" fill="#006095" fill-rule="nonzero"></path>
                <path d="M52.4022926,0.528198601 C52.1072104,0.237945778 51.5450997,0 51.1274129,0 L6.50870232,0 C5.67021177,0 4.99380862,0.670760942 5.00004275,1.49536614 L5.00004275,28.9698984 C5.00004275,29.3842523 5.33980286,29.7196328 5.7574896,29.7196328 L8.13061525,29.7196328 C8.54934101,29.7196328 8.88910112,29.3842523 8.88910112,28.9698984 L8.88910112,4.30148531 C8.88910112,3.9937968 9.14158341,3.747646 9.45017286,3.747646 L47.9833331,3.747646 C48.2919226,3.747646 48.5433658,3.9937968 48.5433658,4.30148531 L48.5496,15.6254479 C48.5402488,16.45313 49.2156129,17.1208141 50.0499474,17.1208141 L61.6267276,17.1208141 C61.9353171,17.1208141 62.1877993,17.3690161 62.1877993,17.6746534 L62.1877993,78.6995403 C62.1877993,79.0051776 61.9353171,79.2533796 61.6267276,79.2533796 L49.3600369,79.2431233 C49.0504085,79.2431233 48.6493461,79.4410696 48.4654392,79.6913229 L46.3468739,82.5230828 C46.162967,82.7712849 46.2679082,82.972308 46.5764977,82.972308 L64.4424765,83 C65.27785,83 65.9573702,82.3323159 65.9604873,81.5046339 L65.9999701,14.6644342 C66.0030872,14.2531572 65.7620341,13.679831 65.467991,13.3895781 L52.4022926,0.528198601 Z" id="Shape" fill="#006095" fill-rule="nonzero"></path>
                <path d="M8.01812824,61 L5.73251654,61 C5.33023286,61 5.00300212,61.3246243 5,61.7246965 L5.00300212,81.5525924 C5,82.3537295 5.64945797,83 6.45602672,83 L23.6911801,82.9731962 C23.9913918,82.9731962 24.0884603,82.7786201 23.9123361,82.5383782 L21.872898,79.7974369 C21.6947724,79.5562023 21.3074993,79.3636118 21.0102897,79.3636118 L9.29002512,79.3735391 C8.99281555,79.3735391 8.74964407,79.1332972 8.74964407,78.8374622 L8.74964407,61.7246965 C8.74964407,61.3246243 8.42141262,61 8.01812824,61 Z" id="Shape" fill="#006095" fill-rule="nonzero"></path>
                <path d="M1.53106485,58 L50.476221,58 C51.3172138,58 52,57.3458332 52,56.5189825 L52,35.4840648 C52,34.6551826 51.3172138,34 50.476221,34 L1.52065653,34 C0.677582066,34 0.003122498,34.6561984 0.00832666133,35.4840648 L0,56.5189825 C0.00416333066,57.3458332 0.689031225,58 1.53106485,58 Z" id="Shape" fill="#006095" fill-rule="nonzero"></path>
                <text id="JSON" font-family="HelveticaNeue-Bold, Helvetica Neue" font-size="16" font-weight="bold" fill="#FFFFFF">
                    <tspan x="4" y="52">JSON</tspan>
                </text>
            </g>
        </g>
    </g>
</svg>